<svg width="101" height="104" viewBox="0 0 101 104" fill="none" xmlns="http://www.w3.org/2000/svg">
<path fill-rule="evenodd" clip-rule="evenodd" d="M67.0099 71.7072C62.9108 69.6444 57.5503 65.8361 57.5503 62.5039C57.5503 60.7585 58.181 59.6477 58.8116 59.3304C66.6946 54.8874 69.3749 40.2891 69.8478 40.2891C72.5281 40.2891 74.42 33.466 74.42 29.023C74.42 25.3735 73.3163 25.5322 71.4244 24.4214V23.9454C71.4244 12.0446 62.1225 3 50.4557 3C38.9465 3 29.0139 12.5206 29.0139 24.2627V24.7388C27.122 25.8495 26.3337 26.4842 26.3337 29.9751C26.3337 34.5768 27.9103 40.9238 30.5905 40.9238C31.0635 40.9238 34.532 54.8874 42.0997 59.6477C42.5727 59.9651 43.361 60.7585 43.361 62.3453C43.361 66.1535 38.3158 69.4857 34.059 71.7072C28.8562 74.4047 3 76.6262 3 101.38H97.596C97.596 76.6262 73.474 75.0394 67.0099 71.7072Z" stroke="#6B6C6E" stroke-width="5"/>
</svg>
