<svg width="430" height="177" viewBox="0 0 430 177" fill="none" xmlns="http://www.w3.org/2000/svg">
<mask id="mask0_47_198" style="mask-type:alpha" maskUnits="userSpaceOnUse" x="0" y="0" width="430" height="177">
<rect width="430" height="177" fill="#E0FCFF"/>
</mask>
<g mask="url(#mask0_47_198)">
<path d="M101.798 128.195C108.43 130.624 116.394 125.519 119.587 116.794C122.778 108.069 119.99 99.0301 113.358 96.6032C106.725 94.1782 98.7622 99.2816 95.5691 108.006C92.3775 116.731 95.1662 125.77 101.798 128.195Z" fill="#D3DE16"/>
<path d="M76.5974 142.11C83.5352 141.509 88.5179 133.625 87.7294 124.496C86.9392 115.37 80.6742 108.459 73.7364 109.057C66.7992 109.66 61.8167 117.545 62.606 126.673C63.3964 135.799 69.6604 142.71 76.5974 142.11Z" fill="#D3DE16"/>
<path d="M130.629 141.801C136.718 145.38 145.467 141.786 150.173 133.776C154.879 125.762 153.757 116.371 147.667 112.792C141.578 109.216 132.827 112.812 128.122 120.822C123.417 128.835 124.54 138.226 130.629 141.801Z" fill="#D3DE16"/>
<path d="M163.242 151.296C159.294 145.56 149.977 145.117 142.429 150.308C134.881 155.504 131.964 164.362 135.91 170.1C139.857 175.835 149.175 176.279 156.722 171.085C164.269 165.892 167.188 157.033 163.242 151.296Z" fill="#D3DE16"/>
<path d="M122.703 152.378C121.95 147.168 118.756 142.416 113.651 140.006C108.547 137.598 102.848 138.154 98.3483 140.883C93.375 143.901 90.1937 147.844 85.9103 149.567C81.6276 151.29 69.6316 146.158 62.1627 159.721C56.8876 169.301 61.73 181.411 71.6191 186.077C79.1355 189.624 85.0844 189.228 89.4517 191.288C93.8184 193.348 97.2945 198.193 104.81 201.739C114.699 206.406 127.125 202.446 131.167 192.284C136.889 177.896 125.299 171.899 123.906 167.498C122.514 163.097 123.535 158.134 122.703 152.378Z" fill="#D3DE16"/>
<path d="M345.13 70.0063C349.067 73.9592 356.473 72.9629 361.673 67.7824C366.871 62.601 367.892 55.1981 363.954 51.2466C360.014 47.2955 352.609 48.2911 347.41 53.4717C342.212 58.653 341.191 66.0559 345.13 70.0063Z" fill="#F9D80D"/>
<path d="M322.441 71.5555C327.609 73.4412 333.809 69.4602 336.292 62.6606C338.773 55.8628 336.595 48.8226 331.428 46.9345C326.26 45.0504 320.06 49.0325 317.577 55.8313C315.096 62.6292 317.274 69.6689 322.441 71.5555Z" fill="#F9D80D"/>
<path d="M361.229 89.3733C364.394 93.9688 371.859 94.3164 377.902 90.153C383.947 85.9859 386.279 78.8875 383.114 74.2919C379.948 69.6989 372.482 69.3518 366.439 73.5155C360.395 77.6817 358.064 84.7804 361.229 89.3733Z" fill="#F9D80D"/>
<path d="M381.409 107.06C380.498 101.635 373.975 98.2069 366.838 99.4044C359.699 100.604 354.653 105.973 355.563 111.398C356.474 116.822 362.997 120.251 370.135 119.052C377.272 117.853 382.319 112.485 381.409 107.06Z" fill="#F9D80D"/>
<path d="M352.023 94.3002C353.224 90.3184 352.523 85.8498 349.673 82.42C346.822 78.9917 342.556 77.487 338.424 77.9388C333.855 78.4393 330.261 80.2 326.619 80.0039C322.977 79.8077 316.102 72.1281 306.226 79.3452C299.251 84.4429 298.675 94.7303 304.197 101.373C308.395 106.422 312.786 108.125 315.225 111.057C317.664 113.99 318.536 118.62 322.733 123.668C328.255 130.311 338.474 131.624 344.76 125.698C353.66 117.307 347.365 109.144 347.837 105.527C348.309 101.911 350.698 98.6993 352.023 94.3002Z" fill="#F9D80D"/>
<path d="M260.957 41.1157C262.41 41.7968 264.314 40.7989 265.209 38.8872C266.104 36.9754 265.652 34.874 264.199 34.1933C262.746 33.513 260.842 34.5105 259.946 36.4223C259.051 38.3341 259.503 40.4355 260.957 41.1157Z" fill="#37BBCA"/>
<path d="M254.976 43.7665C256.559 43.7678 257.843 42.0819 257.845 39.9997C257.847 37.9182 256.566 36.2296 254.983 36.2276C253.401 36.2268 252.117 37.9131 252.115 39.9949C252.113 42.0764 253.394 43.7649 254.976 43.7665Z" fill="#37BBCA"/>
<path d="M267.214 44.7666C268.521 45.6973 270.573 45.0569 271.797 43.3371C273.021 41.6161 272.953 39.4681 271.645 38.5373C270.337 37.6073 268.285 38.248 267.062 39.9679C265.838 41.6886 265.906 43.8366 267.214 44.7666Z" fill="#37BBCA"/>
<path d="M274.408 47.5617C273.628 46.1852 271.528 45.9003 269.716 46.9261C267.905 47.9526 267.069 49.9001 267.849 51.277C268.628 52.6535 270.729 52.9385 272.54 51.9123C274.351 50.8861 275.187 48.9386 274.408 47.5617Z" fill="#37BBCA"/>
<path d="M265.21 47.0039C265.143 45.8096 264.514 44.6707 263.406 44.0241C262.298 43.3779 260.997 43.3908 259.924 43.9195C258.739 44.5042 257.941 45.3337 256.937 45.639C255.933 45.9442 253.319 44.5449 251.36 47.4671C249.976 49.5312 250.833 52.3684 252.979 53.6206C254.61 54.5723 255.965 54.6005 256.912 55.1532C257.86 55.7059 258.551 56.8715 260.182 57.8232C262.328 59.0754 265.219 58.4252 266.335 56.2048C267.916 53.0613 265.411 51.4742 265.183 50.4502C264.955 49.4264 265.284 48.3233 265.21 47.0039Z" fill="#37BBCA"/>
<path d="M391.335 160.085C394.192 158.759 395.094 154.638 393.349 150.879C391.604 147.121 387.874 145.15 385.018 146.476C382.161 147.803 381.259 151.924 383.004 155.682C384.749 159.44 388.479 161.411 391.335 160.085Z" fill="#D3DE16"/>
<path d="M387.776 172.42C389.774 170.042 388.859 165.985 385.731 163.355C382.604 160.726 378.449 160.522 376.45 162.898C374.452 165.276 375.368 169.334 378.495 171.964C381.622 174.593 385.777 174.797 387.776 172.42Z" fill="#D3DE16"/>
<path d="M404.718 155.283C407.767 154.491 409.392 150.599 408.35 146.589C407.307 142.577 403.992 139.97 400.942 140.761C397.895 141.554 396.269 145.448 397.311 149.457C398.354 153.468 401.67 156.076 404.718 155.283Z" fill="#D3DE16"/>
<path d="M417.997 147.993C414.943 147.429 411.865 150.227 411.122 154.245C410.38 158.263 412.253 161.977 415.308 162.542C418.361 163.106 421.439 160.307 422.182 156.289C422.924 152.272 421.05 148.557 417.997 147.993Z" fill="#D3DE16"/>
<path d="M405.554 161.118C403.673 159.713 401.167 159.221 398.797 160.071C396.428 160.922 394.806 162.894 394.248 165.174C393.632 167.694 393.872 169.94 393.064 171.835C392.257 173.729 386.855 175.893 388.777 182.526C390.135 187.211 395.481 189.503 400.071 187.856C403.56 186.604 405.311 184.603 407.338 183.875C409.365 183.147 411.989 183.579 415.478 182.327C420.068 180.681 422.738 175.513 420.808 171.034C418.075 164.692 412.529 166.456 410.701 165.507C408.874 164.558 407.631 162.671 405.554 161.118Z" fill="#D3DE16"/>
<path d="M294.158 149.914C296.087 149.401 297.102 146.929 296.428 144.392C295.752 141.855 293.642 140.215 291.713 140.728C289.785 141.242 288.769 143.714 289.444 146.251C290.119 148.788 292.23 150.428 294.158 149.914Z" fill="#0191B6"/>
<path d="M290.58 157.219C292.089 155.956 291.964 153.323 290.302 151.338C288.64 149.354 286.07 148.769 284.561 150.032C283.053 151.296 283.178 153.929 284.84 155.914C286.502 157.898 289.072 158.483 290.58 157.219Z" fill="#0191B6"/>
<path d="M303.036 148.391C305.026 148.232 306.469 145.982 306.26 143.366C306.05 140.748 304.268 138.756 302.279 138.915C300.29 139.074 298.847 141.325 299.056 143.941C299.266 146.558 301.048 148.55 303.036 148.391Z" fill="#0191B6"/>
<path d="M312.124 145.303C310.281 144.615 308.052 146.022 307.147 148.447C306.241 150.873 307.002 153.397 308.845 154.085C310.689 154.773 312.917 153.365 313.822 150.94C314.727 148.515 313.967 145.991 312.124 145.303Z" fill="#0191B6"/>
<path d="M302.916 152.124C301.897 151.04 300.388 150.457 298.816 150.727C297.244 150.997 296.015 152.049 295.416 153.41C294.754 154.915 294.656 156.343 293.944 157.436C293.232 158.529 289.624 159.285 290.093 163.635C290.425 166.708 293.508 168.726 296.554 168.203C298.868 167.806 300.181 166.75 301.526 166.519C302.87 166.288 304.46 166.846 306.775 166.449C309.82 165.926 312.054 162.996 311.343 159.989C310.335 155.731 306.681 156.221 305.645 155.428C304.609 154.635 304.042 153.321 302.916 152.124Z" fill="#0191B6"/>
<path d="M350.019 20.8899C350.322 20.062 349.685 19.0678 348.596 18.6692C347.507 18.2708 346.378 18.6189 346.075 19.4467C345.773 20.2749 346.41 21.2689 347.499 21.6675C348.588 22.0659 349.716 21.7178 350.019 20.8899Z" fill="#FF7B17"/>
<path d="M351.756 24.0358C351.681 23.1697 350.697 22.5477 349.557 22.6462C348.418 22.7448 347.555 23.5269 347.63 24.393C347.705 25.259 348.69 25.881 349.829 25.7825C350.968 25.6838 351.831 24.9018 351.756 24.0358Z" fill="#FF7B17"/>
<path d="M351.718 17.2908C352.164 16.5306 351.716 15.4384 350.716 14.851C349.715 14.2635 348.543 14.4035 348.096 15.1638C347.65 15.9239 348.099 17.0164 349.099 17.6037C350.099 18.1911 351.271 18.0509 351.718 17.2908Z" fill="#FF7B17"/>
<path d="M352.903 13.2195C352.187 13.7124 352.132 14.8755 352.78 15.8176C353.428 16.76 354.534 17.1241 355.25 16.6314C355.966 16.1387 356.022 14.9755 355.373 14.0333C354.725 13.0913 353.619 12.7269 352.903 13.2195Z" fill="#FF7B17"/>
<path d="M353.038 18.2802C352.388 18.3742 351.794 18.7729 351.494 19.4102C351.193 20.0474 351.262 20.7589 351.603 21.3205C351.98 21.9414 352.472 22.3385 352.687 22.8732C352.902 23.4079 352.262 24.9054 353.955 25.8378C355.151 26.4963 356.662 25.8918 357.245 24.6573C357.688 23.719 357.638 22.9763 357.895 22.4311C358.153 21.886 358.757 21.4521 359.2 20.5138C359.783 19.2794 359.288 17.7281 358.02 17.2236C356.224 16.5093 355.475 17.9561 354.926 18.13C354.376 18.3038 353.757 18.1763 353.038 18.2802Z" fill="#FF7B17"/>
<path d="M12.1757 152.866C14.3918 155.517 19.0146 155.302 22.5018 152.387C25.9883 149.471 27.018 144.959 24.802 142.308C22.5845 139.658 17.9624 139.872 14.4753 142.788C10.9887 145.704 9.95907 150.216 12.1757 152.866Z" fill="#F9D80D"/>
<path d="M-1.9056 152.597C1.18109 154.039 5.22076 151.918 7.11987 147.857C9.01749 143.797 8.05373 139.336 4.96787 137.892C1.88099 136.451 -2.15895 138.573 -4.05735 142.633C-5.95488 146.694 -4.99152 151.154 -1.9056 152.597Z" fill="#F9D80D"/>
<path d="M21.063 165.683C22.7674 168.689 27.3538 169.306 31.3068 167.064C35.2611 164.819 37.0832 160.566 35.3783 157.56C33.6731 154.555 29.0855 153.938 25.1329 156.181C21.1791 158.425 19.3577 162.679 21.063 165.683Z" fill="#F9D80D"/>
<path d="M32.5584 177.684C32.2887 174.288 28.4496 171.821 23.9819 172.174C19.5126 172.529 16.1095 175.569 16.3783 178.965C16.6476 182.361 20.487 184.828 24.9553 184.474C29.423 184.119 32.8268 181.08 32.5584 177.684Z" fill="#F9D80D"/>
<path d="M15.1174 168.226C16.0729 165.834 15.882 163.039 14.3085 160.77C12.735 158.501 10.1844 157.342 7.61038 157.398C4.76494 157.46 2.45257 158.352 0.216137 158.035C-2.01997 157.717 -5.84721 152.608 -12.3295 156.528C-16.908 159.296 -17.8187 165.612 -14.7702 170.008C-12.4532 173.349 -9.83574 174.637 -8.48916 176.578C-7.14286 178.519 -6.85524 181.422 -4.53835 184.763C-1.49002 189.159 4.74348 190.521 8.94173 187.204C14.8856 182.508 11.4423 177.132 11.9287 174.926C12.4154 172.721 14.0621 170.868 15.1174 168.226Z" fill="#F9D80D"/>
<path d="M51.9326 66.5869C53.8137 65.0146 53.6612 61.7348 51.5927 59.2606C49.5238 56.787 46.3225 56.0565 44.4421 57.6287C42.5618 59.2019 42.714 62.4813 44.7825 64.9554C46.8514 67.4291 50.0527 68.1596 51.9326 66.5869Z" fill="#0191B6"/>
<path d="M51.7419 76.5775C52.7652 74.3875 51.26 71.5214 48.3789 70.174C45.4984 68.8277 42.3333 69.5114 41.309 71.7008C40.2864 73.891 41.792 76.7573 44.6729 78.1042C47.5534 79.4504 50.7182 78.7669 51.7419 76.5775Z" fill="#0191B6"/>
<path d="M61.0264 60.2815C63.1591 59.0722 63.5971 55.8182 62.0061 53.0136C60.4136 50.208 57.3959 48.9153 55.2631 50.1249C53.1314 51.3347 52.6936 54.5895 54.2847 57.3939C55.8768 60.1991 58.8948 61.4914 61.0264 60.2815Z" fill="#0191B6"/>
<path d="M69.5408 52.1256C67.1314 52.3169 65.3811 55.0407 65.6319 58.2105C65.8835 61.3814 68.0403 63.7959 70.45 63.6052C72.8591 63.4141 74.6097 60.6901 74.3583 57.5199C74.1068 54.3501 71.9503 51.9351 69.5408 52.1256Z" fill="#0191B6"/>
<path d="M62.8304 64.4999C61.1335 63.8219 59.1507 63.9573 57.5403 65.0737C55.9305 66.1901 55.1085 67.9998 55.148 69.826C55.1921 71.8448 55.8252 73.4854 55.5998 75.0721C55.3745 76.6587 51.7497 79.374 54.5306 83.9732C56.4948 87.2216 60.9757 87.8677 64.0948 85.7048C66.4655 84.0609 67.3789 82.2039 68.7561 81.2485C70.1331 80.2933 72.1929 80.0892 74.5634 78.4454C77.6825 76.2827 78.6489 71.86 76.2954 68.8814C72.9635 64.6643 69.1492 67.1073 67.5842 66.7622C66.0197 66.4169 64.7052 65.2485 62.8304 64.4999Z" fill="#0191B6"/>
<path d="M131.123 27.7746C134.124 29.8848 138.806 28.394 141.581 24.4455C144.356 20.4966 144.172 15.5861 141.171 13.4768C138.168 11.368 133.487 12.8583 130.711 16.8068C127.937 20.7556 128.121 25.6662 131.123 27.7746Z" fill="#FF7B17"/>
<path d="M116.607 31.3685C120.169 31.9995 123.729 28.7136 124.561 24.0268C125.391 19.3414 123.177 15.031 119.615 14.3984C116.053 13.7684 112.493 17.0551 111.662 21.7413C110.831 26.4267 113.045 30.7369 116.607 31.3685Z" fill="#FF7B17"/>
<path d="M143.76 38.4778C146.334 41.0924 151.207 40.4652 154.645 37.079C158.084 33.6903 158.784 28.8272 156.209 26.2126C153.635 23.5998 148.76 24.2276 145.323 27.6138C141.884 31.0019 141.185 35.8651 143.76 38.4778Z" fill="#FF7B17"/>
<path d="M158.847 47.6269C157.638 44.2181 153.022 42.743 148.537 44.3333C144.051 45.9252 141.396 49.9781 142.605 53.3876C143.814 56.7962 148.43 58.2717 152.916 56.6804C157.4 55.089 160.056 51.0363 158.847 47.6269Z" fill="#FF7B17"/>
<path d="M138.361 42.7196C138.683 40.004 137.72 37.1903 135.482 35.2947C133.245 33.4001 130.31 32.9128 127.686 33.6772C124.784 34.523 122.658 36.0736 120.277 36.3624C117.896 36.6512 112.567 32.4631 106.996 38.2645C103.061 42.3621 103.863 49.0897 108.197 52.7608C111.492 55.5511 114.53 56.1522 116.445 57.7729C118.359 59.3935 119.452 62.292 122.746 65.082C127.081 68.7531 133.848 68.4371 137.242 63.8812C142.048 57.4313 137.039 52.8638 136.932 50.4679C136.825 48.0724 138.004 45.7197 138.361 42.7196Z" fill="#FF7B17"/>
</g>
</svg>
